<svg width="16" height="16" viewBox="0 0 16 16" fill="none" xmlns="http://www.w3.org/2000/svg">
<path d="M10.97 4.97C11.1109 4.83589 11.2983 4.76175 11.4928 4.76322C11.6873 4.76469 11.8736 4.84166 12.0124 4.97789C12.1513 5.11412 12.2317 5.29895 12.2369 5.49338C12.242 5.68781 12.1714 5.87663 12.04 6.02L8.05 11.01C7.98139 11.0839 7.89858 11.1432 7.80653 11.1844C7.71448 11.2255 7.61507 11.2477 7.51425 11.2496C7.41343 11.2514 7.31327 11.233 7.21975 11.1952C7.12624 11.1575 7.0413 11.1013 6.97 11.03L4.324 8.384C4.25031 8.31534 4.19121 8.23254 4.15022 8.14054C4.10922 8.04854 4.08718 7.94923 4.08541 7.84852C4.08363 7.74782 4.10215 7.64779 4.13987 7.5544C4.1776 7.46102 4.23374 7.37618 4.30496 7.30496C4.37618 7.23374 4.46101 7.1776 4.5544 7.13988C4.64779 7.10216 4.74782 7.08363 4.84852 7.08541C4.94922 7.08719 5.04854 7.10923 5.14054 7.15022C5.23254 7.19121 5.31534 7.25031 5.384 7.324L7.478 9.417L10.951 4.992C10.9573 4.9843 10.9629 4.97696 10.97 4.97Z" fill="#999999"/>
</svg>
