<svg width="448" height="512" viewBox="0 0 448 512" fill="none" xmlns="http://www.w3.org/2000/svg">
<g clip-path="url(#clip0_1_2)">
<path d="M0 64C0 28.7 28.7 0 64 0H384C419.3 0 448 28.7 448 64V448C448 483.3 419.3 512 384 512H64C28.7 512 0 483.3 0 448V64ZM256 448C256 439.513 252.629 431.374 246.627 425.373C240.626 419.371 232.487 416 224 416C215.513 416 207.374 419.371 201.373 425.373C195.371 431.374 192 439.513 192 448C192 456.487 195.371 464.626 201.373 470.627C207.374 476.629 215.513 480 224 480C232.487 480 240.626 476.629 246.627 470.627C252.629 464.626 256 456.487 256 448ZM384 64H64V384H384V64Z" fill="#999999"/>
</g>
<defs>
<clipPath id="clip0_1_2">
<rect width="448" height="512" fill="white"/>
</clipPath>
</defs>
</svg>
